<svg viewBox="0 0 24 24" xmlns="http://www.w3.org/2000/svg" aria-hidden="true"><path fill="#5FA04E" d="M11.998 24a1.14 1.14 0 0 1-.922-.247l-2.936-1.737a.5.5 0 0 0-.08-.383c.585-.203.703-.25 1.328-.604a.25.25 0 0 1 .218.017l2.256 1.339a.3.3 0 0 0 .272 0l8.795-5.076a.25.25 0 0 0 .134-.238V6.921a.25.25 0 0 0-.137-.242l-8.791-5.072a.3.3 0 0 0-.271 0L3.075 6.68A.25.25 0 0 0 2.936 6.921v10.15a.25.25 0 0 0 .139.235l2.409 1.392c1.307.654 2.108-.116 2.108-.89V7.787a.25.25 0 0 1 .256-.253h1.115a.25.25 0 0 1 .255.253v10.021c0 1.745-.95 2.745-2.604 2.745-.508 0-.909 0-2.026-.551L2.28 18.675a1.75 1.75 0 0 1-.922-1.604V6.921c0-.659.353-1.275.922-1.603l8.795-5.082c.557-.315 1.296-.315 1.848 0l8.794 5.082c.57.329.924.944.924 1.603v10.15c0 .659-.354 1.273-.924 1.604l-8.794 5.078a1.14 1.14 0 0 1-.922.247zM19.099 13.993c0-1.9-1.284-2.406-3.987-2.763-2.731-.361-3.009-.548-3.009-1.187 0-.528.235-1.233 2.258-1.233 1.807 0 2.473.389 2.747 1.607a.25.25 0 0 0 .247.199h1.141a.2.2 0 0 0 .186-.081.2.2 0 0 0 .067-.196c-.177-2.098-1.571-3.076-4.388-3.076-2.508 0-4.004 1.058-4.004 2.833 0 1.925 1.488 2.457 3.895 2.695 2.88.282 3.103.703 3.103 1.269 0 .983-.789 1.402-2.642 1.402-2.327 0-2.839-.584-3.011-1.742a.25.25 0 0 0-.253-.215h-1.137a.25.25 0 0 0-.254.253c0 1.482.806 3.248 4.655 3.248 2.965 0 4.563-1.097 4.563-3.014z"/></svg>
